<svg xmlns="http://www.w3.org/2000/svg" width="32" height="32" viewBox="0 0 32 32" fill="none">
  <!-- 外側の太い緑の円 -->
  <circle cx="16" cy="16" r="15" fill="#4ade80"/>
  <circle cx="16" cy="16" r="12" fill="white"/>
  
  <!-- ハート型のベース（緑色） -->
  <path d="M16 22 C12 19, 8 15, 8 11 C8 9, 9 7, 11 7 C12.5 7, 14.5 8.5, 16 10 C17.5 8.5, 19.5 7, 21 7 C23 7, 24 9, 24 11 C24 15, 20 19, 16 22 Z" fill="#4ade80"/>
  
  <!-- フォーク（左側のハート部分、白色） -->
  <g fill="white">
    <!-- フォークの歯（3本） -->
    <rect x="12" y="10" width="0.5" height="3" rx="0.2"/>
    <rect x="13" y="10" width="0.5" height="3" rx="0.2"/>
    <rect x="14" y="10" width="0.5" height="3" rx="0.2"/>
    <!-- フォークの柄 -->
    <rect x="12.5" y="13" width="1" height="4" rx="0.5"/>
  </g>
  
  <!-- スプーン（右側のハート部分、白色） -->
  <g fill="white">
    <!-- スプーンのボウル部分（楕円） -->
    <ellipse cx="19" cy="11.5" rx="1.5" ry="2"/>
    <!-- スプーンの柄 -->
    <rect x="18.5" y="13.5" width="1" height="4" rx="0.5"/>
  </g>
</svg> 