<svg xmlns="http://www.w3.org/2000/svg" width="100" height="100" viewBox="0 0 100 100" fill="none">
  <!-- 外側の太い緑の円 -->
  <circle cx="50" cy="50" r="48" fill="#4ade80"/>
  <circle cx="50" cy="50" r="40" fill="white"/>
  
  <!-- ハート型のベース（緑色） -->
  <path d="M50 70 C38 58, 25 45, 25 32 C25 24, 31 18, 39 18 C44 18, 48 22, 50 26 C52 22, 56 18, 61 18 C69 18, 75 24, 75 32 C75 45, 62 58, 50 70 Z" fill="#4ade80"/>
  
  <!-- フォーク（左側のハート部分、白色） -->
  <g fill="white">
    <!-- フォークの歯（3本） -->
    <rect x="38" y="30" width="1.5" height="10" rx="0.5"/>
    <rect x="40.5" y="30" width="1.5" height="10" rx="0.5"/>
    <rect x="43" y="30" width="1.5" height="10" rx="0.5"/>
    <!-- フォークの柄 -->
    <rect x="39.5" y="40" width="3" height="12" rx="1.5"/>
  </g>
  
  <!-- スプーン（右側のハート部分、白色） -->
  <g fill="white">
    <!-- スプーンのボウル部分（楕円） -->
    <ellipse cx="60" cy="35" rx="5" ry="7"/>
    <!-- スプーンの柄 -->
    <rect x="58.5" y="42" width="3" height="12" rx="1.5"/>
    <!-- スプーンの柄の小さな装飾 -->
    <rect x="59" y="48" width="2" height="2" rx="1"/>
  </g>
  
  <!-- 右側の矢印（緑色） -->
  <path d="M82 45 L92 50 L82 55 L84 50 Z" fill="#4ade80"/>
</svg> 